<svg xmlns="http://www.w3.org/2000/svg" viewBox="0 0 750 1050" width="100%" height="100%">
  <defs>
    <linearGradient id="bgGrad1" x1="0%" y1="0%" x2="100%" y2="100%"><stop offset="0%" stop-color="#020813"/><stop offset="100%" stop-color="#0b1d3a"/></linearGradient>
    <clipPath id="artClip1"><polygon points="40,140 710,140 710,520 620,590 40,590"/></clipPath>
  </defs>
  <rect width="750" height="1050" fill="url(#bgGrad1)"/>
  <rect x="25" y="25" width="700" height="1000" fill="none" stroke="#00f0ff" stroke-width="2" stroke-opacity="0.4"/>
  <g clip-path="url(#artClip1)"><rect x="40" y="140" width="670" height="450" fill="#051226"/><text x="375" y="360" fill="#00f0ff" font-family="sans-serif" font-size="24" text-anchor="middle" opacity="0.3">NEON GRID MECH ART</text></g>
  <polygon points="40,140 710,140 710,520 620,590 40,590" fill="none" stroke="#00f0ff" stroke-width="2.5"/>
  <rect x="40" y="55" width="540" height="70" fill="#071a35" stroke="#00f0ff" stroke-width="1.5"/>
  <text x="70" y="100" fill="#ffffff" font-family="sans-serif" font-size="28" font-weight="bold">PLASMA OVAL</text>
  <circle cx="650" cy="90" r="40" fill="#ff0055" stroke="#ffffff" stroke-width="2"/>
  <text x="650" y="102" fill="#ffffff" font-family="sans-serif" font-size="32" font-weight="bold" text-anchor="middle">6</text>
  <rect x="40" y="630" width="670" height="270" rx="15" fill="#040d1a" stroke="#00f0ff" stroke-width="1.5"/>
  <text x="70" y="690" fill="#ffffff" font-family="sans-serif" font-size="20" font-weight="bold"><tspan fill="#ff0055">Charge:</tspan> Gains +200 attack power.</text>
  <g transform="translate(40, 930)"><rect width="160" height="60" fill="#1f0510" stroke="#ff0055" stroke-width="1.5"/><text x="80" y="40" fill="#ffffff" font-family="sans-serif" font-size="24" text-anchor="middle">500 ATK</text></g>
  <g transform="translate(550, 930)"><rect width="160" height="60" fill="#051f1a" stroke="#00ffaa" stroke-width="1.5"/><text x="80" y="40" fill="#ffffff" font-family="sans-serif" font-size="24" text-anchor="middle">400 DEF</text></g>
</svg>